<svg width="226" height="81" viewBox="0 0 226 81" fill="none" xmlns="http://www.w3.org/2000/svg">
<g clip-path="url(#clip0_202_52)">
<path d="M84.0779 40.2498L59.0696 15.2094L59.0196 15.2594L58.6695 14.9092C57.7442 16.4351 56.5188 18.2362 55.1683 20.1124L55.4434 19.8372L75.8752 40.2748L52.8926 63.264L56.9939 67.3666L81.352 43.0015L84.0779 40.2748V40.2498Z" fill="black"/>
<path d="M33.261 51.6069L37.3624 55.7094L61.7205 31.3444L57.6191 27.2418L37.4124 47.4543L28.2594 38.2986C25.9586 38.5988 23.6578 38.924 21.282 39.6495L33.236 51.6069H33.261Z" fill="black"/>
<path d="M11.3287 47.3793L36.4871 72.5448H36.5121L69.6731 39.3743L65.5717 35.2718L36.5121 64.3397L14.9549 42.7764C13.2544 44.1523 12.104 45.7783 11.3287 47.3793Z" fill="black"/>
<path d="M58.2693 14.509L42.7642 30.0185L46.8655 34.1211L58.0442 22.9392C59.3947 21.088 60.6201 19.2869 61.5454 17.736L58.2943 14.4839L58.2693 14.509Z" fill="black"/>
<path d="M47.9159 11.8073L43.8146 7.70477L16.6055 34.9216L20.7069 39.0241L21.3071 39.6245C23.6829 38.899 25.9586 38.5738 28.2844 38.2736L24.8583 34.8465L47.9159 11.8073Z" fill="black"/>
<path d="M47.9159 11.8073L43.8146 7.70477L16.6055 34.9216L20.7069 39.0241L21.3071 39.6245C23.6829 38.899 25.9586 38.5738 28.2844 38.2736L24.8583 34.8465L47.9159 11.8073Z" fill="black"/>
<path d="M40.1133 4.10253L36.0119 0L0 36.0222L0.500166 36.5225L11.3538 47.3792C12.129 45.7783 13.2794 44.1523 14.98 42.7764L8.22773 36.0222L40.1133 4.10253Z" fill="black"/>
<path d="M40.1133 4.10253L36.0119 0L0 36.0222L0.500166 36.5225L11.3538 47.3792C12.129 45.7783 13.2794 44.1523 14.98 42.7764L8.22773 36.0222L40.1133 4.10253Z" fill="black"/>
<path d="M224.725 62.8888H84.5031V65.7656H224.725V62.8888Z" fill="black"/>
<path d="M179.309 10.3063H158.303C158.303 10.3063 144.698 10.3063 144.698 31.3693C144.698 52.4323 158.303 53.4079 158.303 53.4079H179.309V45.1779H165.03C165.03 45.1779 153.851 45.1779 153.851 31.8696C153.851 18.5614 164.805 18.5614 164.805 18.5614H179.334V10.3314L179.309 10.3063Z" fill="black"/>
<path d="M134.095 10.3063H113.088C113.088 10.3063 99.483 10.3063 99.483 31.3693C99.483 52.4323 113.088 53.4079 113.088 53.4079H134.095V45.1779H119.815C119.815 45.1779 108.636 45.1779 108.636 31.8696C108.636 18.5614 119.59 18.5614 119.59 18.5614H134.12V10.3314L134.095 10.3063Z" fill="black"/>
<path d="M224.725 40.5C224.725 33.9209 219.448 28.5176 212.621 27.7671H212.596C212.07 27.7171 211.545 27.7671 211.02 27.7671C210.495 27.7671 210.07 27.7171 209.67 27.7671H201.767C199.266 27.4419 197.315 25.3656 197.315 22.9141C197.315 20.4626 199.141 18.9117 201.542 18.5614H224.399L224.524 10.3314H200.692C194.54 11.5821 189.913 17.0105 189.913 23.1643C189.913 30.2437 196.04 35.9972 203.618 35.9972C204.093 35.9972 204.468 36.0973 204.793 35.9972H212.871C215.371 36.2724 217.322 37.8233 217.322 40.2748C217.322 42.7264 215.396 44.7526 212.871 45.1028H212.145L198.241 45.1779C198.241 45.1779 198.266 45.1529 198.291 45.1779L189.938 45.2279V53.458L206.469 53.2829H212.521C219.398 52.5824 224.725 47.1541 224.725 40.525V40.5Z" fill="black"/>
<path d="M48.9913 76.072C48.5911 75.5967 47.9659 75.2715 47.2907 75.2715C46.0653 75.2715 45.14 76.2221 45.14 77.3728C45.14 78.5235 46.0653 79.4741 47.2907 79.4741C47.9659 79.4741 48.5661 79.1739 48.9913 78.6736L50.4167 79.4741C49.7165 80.3996 48.5661 80.95 47.2907 80.95C45.19 81 43.3644 79.299 43.3894 77.3477C43.3394 75.3965 45.19 73.6955 47.2907 73.7455C48.5661 73.7455 49.7165 74.2959 50.4167 75.2214L48.9913 76.0219V76.072Z" fill="#666666"/>
<path d="M58.6945 77.723C58.6945 79.8493 57.5191 81.025 55.3434 81.025C53.1676 81.025 51.9922 79.8493 51.9922 77.723V73.9207H53.6678V77.723C53.6678 78.9237 54.268 79.5491 55.3434 79.5491C56.4187 79.5491 57.0189 78.8987 57.0189 77.723V73.9207H58.6945V77.723Z" fill="#666666"/>
<path d="M62.3707 79.4741H66.122V80.9H60.6702V73.8956H62.3457V79.4741H62.3707Z" fill="#666666"/>
<path d="M72.399 75.2715H70.1483V80.9H68.4477V75.2715H66.197V73.8956H72.399V75.2715Z" fill="#666666"/>
<path d="M80.5267 77.723C80.5267 79.8493 79.3514 81.025 77.1756 81.025C74.9999 81.025 73.8245 79.8493 73.8245 77.723V73.9207H75.5001V77.723C75.5001 78.9237 76.1003 79.5491 77.1756 79.5491C78.251 79.5491 78.8512 78.8987 78.8512 77.723V73.9207H80.5267V77.723Z" fill="#666666"/>
<path d="M87.354 80.9L85.8285 78.6736H84.203V80.9H82.5274V73.8956H85.8035C88.1293 73.8956 89.0796 74.5961 89.0796 76.2471C89.0796 77.3978 88.6044 78.1232 87.5791 78.4484L89.3047 80.9H87.329H87.354ZM84.203 77.3478H85.8785C86.9289 77.3478 87.329 77.0476 87.329 76.3221C87.329 75.5967 86.9289 75.2715 85.8785 75.2715H84.203V77.3478Z" fill="#666666"/>
<path d="M96.6321 75.3215H92.4057V76.6974H96.332V78.0482H92.4057V79.4991H96.7071V80.925H90.7301V73.9207H96.6321V75.3215Z" fill="#666666"/>
<path d="M107.836 76.072C107.436 75.5967 106.81 75.2715 106.135 75.2715C104.91 75.2715 103.985 76.2221 103.985 77.3728C103.985 78.5235 104.91 79.4741 106.135 79.4741C106.81 79.4741 107.411 79.1739 107.836 78.6736L109.261 79.4741C108.561 80.3996 107.411 80.95 106.135 80.95C104.035 81 102.209 79.299 102.234 77.3477C102.184 75.3965 104.035 73.6955 106.135 73.7455C107.411 73.7455 108.561 74.2959 109.261 75.2214L107.836 76.0219V76.072Z" fill="#666666"/>
<path d="M117.689 80.9H116.014V78.0982H112.537V80.9H110.862V73.8956H112.537V76.6473H116.014V73.8956H117.689V80.9Z" fill="#666666"/>
<path d="M124.866 79.5241H121.64L121.09 80.9H119.14L122.141 73.8956H124.341L127.392 80.9H125.442L124.891 79.5241H124.866ZM124.316 78.2233L123.216 75.5466L122.141 78.2233H124.316Z" fill="#666666"/>
<path d="M135.67 73.8956V80.9H133.919L130.468 76.3972V80.9H128.818V73.8956H130.568L134.019 78.3734V73.8956H135.67Z" fill="#666666"/>
<path d="M143.223 75.8969C142.722 75.4966 142.097 75.2715 141.472 75.2715C140.247 75.2715 139.171 76.147 139.171 77.4228C139.171 78.5985 140.121 79.5241 141.372 79.5241C141.997 79.5241 142.547 79.374 142.997 79.0988V78.1733H141.472V76.9725H144.598V79.9744C143.698 80.6498 142.572 81.05 141.372 81.05C139.221 81.1001 137.371 79.399 137.421 77.4478C137.371 75.2715 139.346 73.8206 141.472 73.8456C142.522 73.8456 143.523 74.1958 144.323 74.8462L143.223 75.9469V75.8969Z" fill="#666666"/>
<path d="M152.451 75.3215H148.224V76.6974H152.151V78.0482H148.224V79.4991H152.526V80.925H146.549V73.9207H152.451V75.3215Z" fill="#666666"/>
<path d="M163.554 75.8218C162.729 75.4216 161.754 75.1714 161.053 75.1714C160.403 75.1714 159.978 75.3966 159.978 75.8218C159.978 76.122 160.128 76.2221 161.154 76.4973L161.904 76.6974C163.579 77.1477 164.38 77.5229 164.43 78.7987C164.43 80.1995 163.229 81 161.304 81C160.053 81 158.828 80.6498 157.852 80.0494L158.603 78.8487C159.503 79.349 160.578 79.6242 161.429 79.6242C162.179 79.6242 162.629 79.399 162.629 78.8737C162.629 78.5235 162.429 78.3734 161.479 78.1733L160.703 77.9732C158.978 77.5729 158.203 77.1727 158.178 75.9219C158.178 75.2215 158.453 74.6711 159.003 74.3209C159.553 73.9707 160.303 73.7706 161.179 73.7706C162.279 73.7706 163.404 74.0457 164.255 74.521L163.529 75.7718L163.554 75.8218Z" fill="#666666"/>
<path d="M169.756 81C167.606 81.0501 165.755 79.349 165.805 77.3978C165.755 75.4466 167.606 73.7455 169.756 73.7956C171.857 73.7455 173.733 75.4466 173.683 77.3978C173.733 79.349 171.857 81.0501 169.756 81ZM169.756 79.4991C170.982 79.4991 171.957 78.5485 171.957 77.3978C171.957 76.2471 171.007 75.2965 169.756 75.2965C168.506 75.2965 167.556 76.2471 167.556 77.3978C167.556 78.5485 168.506 79.4991 169.756 79.4991Z" fill="#666666"/>
<path d="M177.134 79.4741H180.885V80.9H175.433V73.8956H177.109V79.4741H177.134Z" fill="#666666"/>
<path d="M188.863 77.723C188.863 79.8493 187.687 81.025 185.512 81.025C183.336 81.025 182.16 79.8493 182.16 77.723V73.9207H183.836V77.723C183.836 78.9237 184.436 79.5491 185.512 79.5491C186.587 79.5491 187.187 78.8987 187.187 77.723V73.9207H188.863V77.723Z" fill="#666666"/>
<path d="M196.465 75.2715H194.214V80.9H192.514V75.2715H190.263V73.8956H196.465V75.2715Z" fill="#666666"/>
<path d="M199.566 80.9H197.891V73.8956H199.566V80.9Z" fill="#666666"/>
<path d="M205.293 81C203.142 81.0501 201.292 79.349 201.342 77.3978C201.292 75.4466 203.142 73.7455 205.293 73.7956C207.394 73.7455 209.269 75.4466 209.219 77.3978C209.269 79.349 207.394 81.0501 205.293 81ZM205.293 79.4991C206.519 79.4991 207.494 78.5485 207.494 77.3978C207.494 76.2471 206.544 75.2965 205.293 75.2965C204.043 75.2965 203.092 76.2471 203.092 77.3978C203.092 78.5485 204.043 79.4991 205.293 79.4991Z" fill="#666666"/>
<path d="M217.847 73.8956V80.9H216.097L212.646 76.3972V80.9H210.995V73.8956H212.746L216.197 78.3734V73.8956H217.847Z" fill="#666666"/>
<path d="M225.125 75.8218C224.299 75.4216 223.324 75.1714 222.624 75.1714C221.974 75.1714 221.549 75.3966 221.549 75.8218C221.549 76.122 221.699 76.2221 222.724 76.4973L223.474 76.6974C225.15 77.1477 225.95 77.5229 226 78.7987C226 80.1995 224.8 81 222.874 81C221.624 81 220.398 80.6498 219.423 80.0494L220.173 78.8487C221.073 79.349 222.149 79.6242 222.999 79.6242C223.749 79.6242 224.199 79.399 224.199 78.8737C224.199 78.5235 223.999 78.3734 223.049 78.1733L222.274 77.9732C220.548 77.5729 219.773 77.1727 219.748 75.9219C219.748 75.2215 220.023 74.6711 220.573 74.3209C221.123 73.9707 221.874 73.7706 222.749 73.7706C223.849 73.7706 224.975 74.0457 225.825 74.521L225.1 75.7718L225.125 75.8218Z" fill="#666666"/>
<path d="M84.0779 40.2498L59.0696 15.2094L59.0196 15.2594L58.6695 14.9092C57.7442 16.4351 56.5188 18.2362 55.1683 20.1124L55.4434 19.8372L75.8752 40.2748L52.8926 63.264L56.9939 67.3666L81.352 43.0015L84.0779 40.2748V40.2498Z" fill="#4D8D3E"/>
<path d="M33.261 51.6069L37.3624 55.7094L61.7205 31.3444L57.6191 27.2418L37.4124 47.4543L28.2594 38.2986C25.9586 38.5988 23.6578 38.924 21.282 39.6495L33.236 51.6069H33.261Z" fill="#4D8D3E"/>
<path d="M11.3287 47.3793L36.4871 72.5448H36.5121L69.6731 39.3743L65.5717 35.2718L36.5121 64.3397L14.9549 42.7764C13.2544 44.1523 12.104 45.7783 11.3287 47.3793Z" fill="#4D8D3E"/>
<path d="M58.2693 14.509L42.7642 30.0185L46.8655 34.1211L58.0442 22.9392C59.3947 21.088 60.6201 19.2869 61.5454 17.736L58.2943 14.4839L58.2693 14.509Z" fill="#4D8D3E"/>
<path d="M47.9159 11.8073L43.8146 7.70477L16.6055 34.9216L20.7069 39.0241L21.3071 39.6245C23.6829 38.899 25.9586 38.5738 28.2844 38.2736L24.8583 34.8465L47.9159 11.8073Z" fill="#DB0812"/>
<path d="M47.9159 11.8073L43.8146 7.70477L16.6055 34.9216L20.7069 39.0241L21.3071 39.6245C23.6829 38.899 25.9586 38.5738 28.2844 38.2736L24.8583 34.8465L47.9159 11.8073Z" fill="#DB0812"/>
<path d="M40.1133 4.10253L36.0119 0L0 36.0222L0.500166 36.5225L11.3538 47.3792C12.129 45.7783 13.2794 44.1523 14.98 42.7764L8.22773 36.0222L40.1133 4.10253Z" fill="#DB0812"/>
<path d="M40.1133 4.10253L36.0119 0L0 36.0222L0.500166 36.5225L11.3538 47.3792C12.129 45.7783 13.2794 44.1523 14.98 42.7764L8.22773 36.0222L40.1133 4.10253Z" fill="#DB0812"/>
<path d="M224.725 62.8888H84.5031V65.7656H224.725V62.8888Z" fill="#666666"/>
<path d="M179.309 10.3063H158.303C158.303 10.3063 144.698 10.3063 144.698 31.3693C144.698 52.4323 158.303 53.4079 158.303 53.4079H179.309V45.1779H165.03C165.03 45.1779 153.851 45.1779 153.851 31.8696C153.851 18.5614 164.805 18.5614 164.805 18.5614H179.334V10.3314L179.309 10.3063Z" fill="#666666"/>
<path d="M134.095 10.3063H113.088C113.088 10.3063 99.483 10.3063 99.483 31.3693C99.483 52.4323 113.088 53.4079 113.088 53.4079H134.095V45.1779H119.815C119.815 45.1779 108.636 45.1779 108.636 31.8696C108.636 18.5614 119.59 18.5614 119.59 18.5614H134.12V10.3314L134.095 10.3063Z" fill="#666666"/>
<path d="M224.725 40.5C224.725 33.9209 219.448 28.5176 212.621 27.7671H212.596C212.07 27.7171 211.545 27.7671 211.02 27.7671C210.495 27.7671 210.07 27.7171 209.67 27.7671H201.767C199.266 27.4419 197.315 25.3656 197.315 22.9141C197.315 20.4626 199.141 18.9117 201.542 18.5614H224.399L224.524 10.3314H200.692C194.54 11.5821 189.913 17.0105 189.913 23.1643C189.913 30.2437 196.04 35.9972 203.618 35.9972C204.093 35.9972 204.468 36.0973 204.793 35.9972H212.871C215.371 36.2724 217.322 37.8233 217.322 40.2748C217.322 42.7264 215.396 44.7526 212.871 45.1028H212.145L198.241 45.1779C198.241 45.1779 198.266 45.1529 198.291 45.1779L189.938 45.2279V53.458L206.469 53.2829H212.521C219.398 52.5824 224.725 47.1541 224.725 40.525V40.5Z" fill="#666666"/>
</g>
<defs>
<clipPath id="clip0_202_52">
<rect width="226" height="81" fill="white"/>
</clipPath>
</defs>
</svg>
