<svg xmlns="http://www.w3.org/2000/svg" version="1.1" xmlns:xlink="http://www.w3.org/1999/xlink" xmlns:svgjs="http://svgjs.com/svgjs" width="512" height="512" x="0" y="0" viewBox="0 0 512 512" style="enable-background:new 0 0 512 512" xml:space="preserve" class=""><g><path d="M279.424 191.996H160v-48c0-6.272-3.68-11.968-9.376-14.56-5.728-2.624-12.448-1.6-17.152 2.528l-128 112A15.946 15.946 0 0 0 0 255.996c0 4.608 1.984 8.992 5.472 12.032l128 112a15.9 15.9 0 0 0 17.152 2.528 16.013 16.013 0 0 0 9.376-14.56v-48h34.112l85.312-128z" style="" fill="#db0812" data-original="#2196f3" class=""></path><path d="m506.528 243.964-128-112c-4.704-4.096-11.392-5.088-17.152-2.528a15.96 15.96 0 0 0-9.376 14.56v48h-34.112l-85.344 128H352v48a15.96 15.96 0 0 0 9.376 14.56c2.112.96 4.384 1.44 6.624 1.44 3.808 0 7.552-1.344 10.528-3.968l128-112A15.946 15.946 0 0 0 512 255.996c0-4.608-1.984-8.992-5.472-12.032z" style="" fill="#4d8d3e" data-original="#4caf50" class=""></path></g></svg>